<svg width="40" height="40" viewBox="0 0 40 40" fill="none" xmlns="http://www.w3.org/2000/svg">
<path fill-rule="evenodd" clip-rule="evenodd" d="M40 20C40 31.0457 31.0457 40 20 40C8.9543 40 0 31.0457 0 20C0 8.9543 8.9543 0 20 0C31.0457 0 40 8.9543 40 20ZM25.5555 22.785C25.5555 20.0425 23.8138 19.102 20.3304 18.7089C17.8422 18.3948 17.3446 17.7684 17.3446 16.6718C17.3446 15.5752 18.1747 14.8698 19.8328 14.8698C21.3257 14.8698 22.1557 15.3401 22.5697 16.5157C22.6533 16.7508 22.9022 16.9069 23.151 16.9069H24.4787C24.8111 16.9069 25.0599 16.6718 25.0599 16.3577V16.2787C24.7275 14.5538 23.2346 13.2221 21.3277 13.066V11.185C21.3277 10.8708 21.0788 10.6357 20.6648 10.5586H19.4207C19.0883 10.5586 18.8395 10.7937 18.7579 11.185V12.9869C16.2697 13.3011 14.6932 14.8679 14.6932 16.8279C14.6932 19.4143 16.3513 20.4338 19.8348 20.825C22.1577 21.2163 22.9042 21.6865 22.9042 22.9411C22.9042 24.1958 21.7437 25.0573 20.1672 25.0573C18.0114 25.0573 17.265 24.1958 17.0162 23.0201C16.9326 22.706 16.6838 22.5499 16.4349 22.5499H15.0257C14.6932 22.5499 14.4444 22.785 14.4444 23.0991V23.1781C14.7768 25.1381 16.1025 26.5489 18.8395 26.9401V28.8211C18.8395 29.1352 19.0883 29.3704 19.5023 29.4475H20.7464C21.0788 29.4475 21.3277 29.2124 21.4093 28.8211V26.9401C23.8954 26.547 25.5555 24.9011 25.5555 22.785ZM8.79709 15.8266C6.47487 22.008 9.6768 28.993 15.9193 31.2416C16.1594 31.4035 16.3995 31.7233 16.3995 31.9661V33.0895C16.3995 33.2513 16.3995 33.3303 16.3188 33.4113C16.2382 33.7331 15.9193 33.893 15.5985 33.7331C11.1174 32.2879 7.67535 28.8349 6.23477 24.3396C3.83381 16.7111 7.99612 8.6028 15.5985 6.19421C15.6792 6.11328 15.8386 6.11328 15.9193 6.11328C16.2401 6.19228 16.3995 6.43314 16.3995 6.75493V7.8783C16.3995 8.28101 16.2401 8.52187 15.9193 8.6818C12.6386 9.8861 9.99757 12.4546 8.79709 15.8266ZM23.6812 6.51407C23.7618 6.19228 24.0807 6.03235 24.4015 6.19228C28.8039 7.63744 32.3246 11.0904 33.7652 15.6648C36.1662 23.2933 32.0039 31.4015 24.4015 33.8101C24.3208 33.8911 24.1614 33.8911 24.0807 33.8911C23.7599 33.8121 23.6005 33.5712 23.6005 33.2494V32.126C23.6005 31.7233 23.7599 31.4825 24.0807 31.3225C27.3614 30.1182 30.0024 27.5497 31.2029 24.1777C33.5251 17.9963 30.3232 11.0114 24.0807 8.76273C23.8406 8.60087 23.6005 8.28101 23.6005 7.95922V6.83586C23.6005 6.674 23.6005 6.595 23.6812 6.51407Z" fill="#DDDDDD"/>
</svg>
