<svg width="40" height="40" viewBox="0 0 40 40" fill="none" xmlns="http://www.w3.org/2000/svg">
<path fill-rule="evenodd" clip-rule="evenodd" d="M40 20C40 31.0457 31.0457 40 20 40C8.9543 40 0 31.0457 0 20C0 8.9543 8.9543 0 20 0C31.0457 0 40 8.9543 40 20ZM19.9921 10V17.2877L25.6603 20.1218L19.9921 10ZM19.6682 17.6112V23.9191L14 20.4453L19.6682 17.6112ZM19.9921 17.6112V23.9191L25.6603 20.4453L19.9921 17.6112ZM25.6603 21.498L19.9921 25.1419V30.0003L25.6603 21.498ZM19.6682 25.1419L14 21.498L19.6682 30.0003V25.1419ZM19.6682 17.2877V10L14 20.1218L19.6682 17.2877ZM5.74999 19.9998C5.74999 12.1297 12.1299 5.7498 20 5.7498C27.87 5.7498 34.25 12.1297 34.25 19.9998C34.25 27.8699 27.87 34.2498 20 34.2498C12.1299 34.2498 5.74999 27.8699 5.74999 19.9998ZM20 4.2498C11.3015 4.2498 4.24999 11.3013 4.24999 19.9998C4.24999 28.6983 11.3015 35.7498 20 35.7498C28.6985 35.7498 35.75 28.6983 35.75 19.9998C35.75 11.3013 28.6985 4.2498 20 4.2498Z" fill="#547FEF"/>
</svg>
